<?xml version="1.0" encoding="UTF-8" standalone="no"?>
<!DOCTYPE svg PUBLIC "-//W3C//DTD SVG 1.1//EN" "http://www.w3.org/Graphics/SVG/1.1/DTD/svg11.dtd">
<svg width="100%" height="100%" viewBox="0 0 320 100" version="1.1" xmlns="http://www.w3.org/2000/svg" xmlns:xlink="http://www.w3.org/1999/xlink" xml:space="preserve" xmlns:serif="http://www.serif.com/" style="fill-rule:evenodd;clip-rule:evenodd;stroke-linejoin:round;stroke-miterlimit:2;">
    <g transform="matrix(1,0,0,1,-408.313,-327.078)">
        <g id="图层-1" serif:id="图层 1">
            <g>
                <g transform="matrix(1,0,0,1,458.475,350.098)">
                    <path d="M0,53.96C4.317,53.96 7.687,52.824 10.113,50.553C12.538,48.282 13.75,44.927 13.75,40.49C13.75,35.786 12.591,32.366 10.272,30.228C7.954,28.089 4.369,27.02 -0.48,27.02L-4.317,27.02C-4.317,31.832 -4.305,36.442 -4.278,40.851C-4.25,45.262 -4.184,49.631 -4.077,53.96L0,53.96ZM-4.077,0.16C-4.184,4.104 -4.25,8.048 -4.278,11.991C-4.305,15.936 -4.317,19.985 -4.317,24.142L-1.199,24.142C2.958,24.142 6.048,23.05 8.074,20.865C10.099,18.68 11.112,15.588 11.112,11.591C11.112,7.914 10.219,5.09 8.434,3.118C6.647,1.147 3.729,0.16 -0.32,0.16L-4.077,0.16ZM3.197,-2.878C7.034,-2.878 10.285,-2.531 12.951,-1.839C15.615,-1.145 17.759,-0.172 19.385,1.079C21.011,2.332 22.197,3.811 22.943,5.516C23.689,7.222 24.062,9.087 24.062,11.112C24.062,12.658 23.795,14.137 23.263,15.548C22.729,16.961 21.81,18.267 20.505,19.465C19.199,20.665 17.479,21.744 15.349,22.703C13.217,23.663 10.552,24.409 7.354,24.942C14.55,25.688 19.719,27.38 22.863,30.018C26.007,32.656 27.58,36.054 27.58,40.211C27.58,42.183 27.179,44.155 26.381,46.126C25.582,48.098 24.155,49.883 22.104,51.482C20.052,53.081 17.268,54.374 13.75,55.359C10.232,56.346 5.782,56.838 0.399,56.838L-24.941,56.838L-24.941,54.2L-17.747,53.481C-17.641,49.263 -17.575,45.008 -17.548,40.711C-17.522,36.414 -17.507,32.105 -17.507,27.78L-17.507,24.898C-17.507,20.789 -17.522,16.707 -17.548,12.649C-17.575,8.592 -17.641,4.536 -17.747,0.48L-24.941,-0.16L-24.941,-2.878L3.197,-2.878Z" style="fill:rgb(237,112,45);fill-rule:nonzero;"/>
                </g>
                <g transform="matrix(1,0,0,1,519.071,368.804)">
                    <path d="M0,16.308L-8.714,-11.032L-16.708,16.308L0,16.308ZM25.901,35.414L25.901,38.132L-1.359,38.132L-1.359,35.414L5.756,34.615L0.879,19.186L-17.507,19.186L-21.903,34.375L-14.389,35.414L-14.389,38.132L-32.695,38.132L-32.695,35.414L-26.06,34.454L-7.994,-21.824L0.32,-21.824L19.506,34.694L25.901,35.414Z" style="fill:rgb(237,112,45);fill-rule:nonzero;"/>
                </g>
                <g transform="matrix(1,0,0,1,597.252,350.419)">
                    <path d="M0,53.32C-2.452,54.769 -5.155,55.931 -8.113,56.805C-11.072,57.678 -14.417,58.117 -18.146,58.117C-22.57,58.117 -26.713,57.463 -30.576,56.158C-34.441,54.853 -37.812,52.894 -40.69,50.282C-43.567,47.672 -45.834,44.394 -47.485,40.45C-49.138,36.506 -49.963,31.896 -49.963,26.62C-49.963,21.291 -49.083,16.654 -47.325,12.71C-45.566,8.766 -43.207,5.503 -40.249,2.917C-37.292,0.333 -33.842,-1.6 -29.898,-2.879C-25.955,-4.157 -21.824,-4.797 -17.507,-4.797C-14.044,-4.797 -11.006,-4.397 -8.393,-3.598C-5.783,-2.798 -3.171,-1.679 -0.56,-0.241L-0.879,14.308L-5.595,14.308L-9.992,-0.96C-11.751,-1.492 -13.697,-1.759 -15.828,-1.759C-18.653,-1.759 -21.278,-1.2 -23.703,-0.083C-26.127,1.035 -28.233,2.751 -30.017,5.066C-31.804,7.381 -33.215,10.334 -34.255,13.927C-35.293,17.519 -35.813,21.763 -35.813,26.66C-35.813,31.61 -35.293,35.854 -34.255,39.393C-33.215,42.933 -31.79,45.859 -29.977,48.174C-28.167,50.489 -26.02,52.192 -23.542,53.282C-21.064,54.374 -18.386,54.918 -15.508,54.918C-13.27,54.918 -11.191,54.573 -9.272,53.88L-5.036,38.931L-0.32,38.931L0,53.32Z" style="fill:rgb(237,112,45);fill-rule:nonzero;"/>
                </g>
                <g transform="matrix(1,0,0,1,629.948,382.714)">
                    <path d="M0,-11.272C2.984,-9.939 5.516,-8.607 7.594,-7.275C9.673,-5.942 11.352,-4.529 12.63,-3.038C13.909,-1.546 14.842,0.093 15.429,1.878C16.014,3.664 16.308,5.676 16.308,7.914C16.308,10.579 15.814,13.004 14.828,15.189C13.842,17.374 12.364,19.253 10.391,20.824C8.419,22.397 5.995,23.622 3.117,24.502C0.24,25.381 -3.065,25.821 -6.796,25.821C-10.101,25.821 -13.431,25.407 -16.788,24.582C-20.145,23.756 -23.024,22.571 -25.421,21.024L-24.862,7.274L-20.225,7.274L-15.988,21.184C-14.764,21.611 -13.538,21.917 -12.311,22.104C-11.085,22.291 -9.7,22.383 -8.155,22.383C-4.157,22.383 -1.107,21.504 0.998,19.745C3.104,17.986 4.157,15.536 4.157,12.39C4.157,9.673 3.503,7.488 2.198,5.835C0.891,4.184 -1.359,2.665 -4.557,1.279L-8.395,-0.4C-11.059,-1.572 -13.418,-2.825 -15.469,-4.157C-17.522,-5.489 -19.24,-6.928 -20.625,-8.474C-22.012,-10.019 -23.051,-11.751 -23.742,-13.67C-24.436,-15.589 -24.782,-17.747 -24.782,-20.145C-24.782,-22.863 -24.262,-25.274 -23.223,-27.38C-22.185,-29.485 -20.705,-31.257 -18.786,-32.696C-16.867,-34.135 -14.577,-35.226 -11.911,-35.974C-9.248,-36.719 -6.289,-37.093 -3.038,-37.093C0.106,-37.093 3.038,-36.693 5.756,-35.894C8.473,-35.094 10.951,-33.975 13.189,-32.536L12.471,-19.506L7.834,-19.506L3.756,-32.776C2.957,-33.148 2.145,-33.402 1.319,-33.535C0.492,-33.668 -0.428,-33.736 -1.439,-33.736C-4.956,-33.736 -7.742,-32.909 -9.794,-31.257C-11.845,-29.605 -12.871,-27.26 -12.871,-24.223C-12.871,-21.451 -12.139,-19.239 -10.673,-17.588C-9.208,-15.935 -7.063,-14.47 -4.238,-13.191L0,-11.272Z" style="fill:rgb(237,112,45);fill-rule:nonzero;"/>
                </g>
                <g transform="matrix(1,0,0,1,683.347,403.738)">
                    <path d="M0,-53.4C-0.107,-49.243 -0.159,-45.099 -0.159,-40.969L-0.159,-12.63C-0.159,-8.525 -0.107,-4.422 0,-0.319L8.155,0.48L8.155,3.198L-21.983,3.198L-21.983,0.48L-13.909,-0.319C-13.802,-4.316 -13.749,-8.366 -13.749,-12.47L-13.749,-40.929C-13.749,-45.086 -13.802,-49.243 -13.909,-53.4L-24.941,-53.4L-28.938,-39.49L-33.654,-39.49L-33.334,-56.598L19.427,-56.598L19.746,-39.49L15.109,-39.49L11.032,-53.4L0,-53.4Z" style="fill:rgb(237,112,45);fill-rule:nonzero;"/>
                </g>
            </g>
        </g>
    </g>
</svg>
