<?xml version="1.0" encoding="UTF-8" standalone="no"?>
<!DOCTYPE svg PUBLIC "-//W3C//DTD SVG 1.1//EN" "http://www.w3.org/Graphics/SVG/1.1/DTD/svg11.dtd">
<svg width="100%" height="100%" viewBox="0 0 320 100" version="1.1" xmlns="http://www.w3.org/2000/svg" xmlns:xlink="http://www.w3.org/1999/xlink" xml:space="preserve" xmlns:serif="http://www.serif.com/" style="fill-rule:evenodd;clip-rule:evenodd;stroke-linejoin:round;stroke-miterlimit:2;">
    <g transform="matrix(1,0,0,1,-94.067,-326.679)">
        <g id="图层-1" serif:id="图层 1">
            <g>
                <g transform="matrix(1,0,0,1,-68.1595,-47.7508)">
                    <path d="M204.154,419.193L216.625,419.193L216.625,396.65L204.154,396.65L204.154,419.193ZM179.531,419.193L192.801,419.193L192.801,396.65L179.531,396.65L179.531,419.193ZM229.974,446.213C232.425,446.96 234.131,447.64 235.09,448.251C236.05,448.865 236.53,449.731 236.53,450.85C236.53,452.183 236.222,453.396 235.61,454.487C234.997,455.579 233.878,456.498 232.253,457.245C230.626,457.991 228.348,458.576 225.417,459.004C222.486,459.429 218.703,459.643 214.066,459.643L188.485,459.643C184.914,459.643 181.822,459.39 179.212,458.884C176.6,458.377 174.442,457.511 172.737,456.286C171.031,455.059 169.765,453.436 168.94,451.409C168.113,449.385 167.701,446.88 167.701,443.895L167.701,389.695L180.651,394.412L215.745,394.412L221.021,388.496L231.973,396.89C231.706,397.21 231.28,397.557 230.694,397.929C230.106,398.303 229.361,398.596 228.455,398.809L228.455,424.469C228.402,424.629 228.042,424.843 227.377,425.109C226.709,425.376 225.884,425.656 224.898,425.948C223.912,426.242 222.86,426.495 221.741,426.707C220.621,426.921 219.582,427.028 218.623,427.028L216.624,427.028L216.624,421.431L179.531,421.431L179.531,444.215C179.531,445.761 180.158,446.853 181.41,447.492C182.662,448.132 184.914,448.452 188.165,448.452L213.266,448.452C215.825,448.452 217.809,448.319 219.223,448.052C220.634,447.786 221.82,447.173 222.779,446.213C223.685,445.201 224.71,443.535 225.858,441.217C227.003,438.899 228.082,436.514 229.095,434.062L229.814,434.062L229.974,446.213Z" style="fill:rgb(237,112,45);fill-rule:nonzero;"/>
                </g>
                <g transform="matrix(1,0,0,1,-68.1595,-47.0308)">
                    <path d="M263.869,426.627L293.287,426.627L293.287,411.198L263.869,411.198L263.869,426.627ZM313.113,448.531C314.552,449.118 315.498,449.744 315.951,450.409C316.403,451.077 316.63,451.942 316.63,453.008C316.63,454.127 316.363,455.086 315.831,455.886C315.297,456.685 314.379,457.365 313.073,457.924C311.767,458.484 309.995,458.896 307.757,459.163C305.519,459.429 302.693,459.563 299.283,459.563L291.449,459.563C289.211,459.563 287.384,459.429 285.973,459.163C284.56,458.896 283.441,458.43 282.616,457.764C281.789,457.097 281.229,456.178 280.937,455.006C280.644,453.835 280.497,452.342 280.497,450.529L280.497,428.865L275.94,428.865C275.621,433.29 274.768,437.299 273.382,440.896C271.996,444.494 269.931,447.665 267.187,450.409C264.441,453.155 260.964,455.472 256.755,457.365C252.544,459.255 247.428,460.762 241.406,461.881L241.166,461.002C245.109,459.349 248.427,457.511 251.119,455.486C253.809,453.461 256.008,451.236 257.714,448.811C259.419,446.386 260.698,443.774 261.551,440.977C262.403,438.179 262.963,435.155 263.23,431.903C262.483,432.49 261.244,433.09 259.513,433.702C257.78,434.315 255.982,434.621 254.117,434.621L252.518,434.621L252.518,404.403L264.509,408.96L272.823,408.96L272.823,398.648L243.964,398.648L243.324,396.409L272.823,396.409L272.823,385.538L287.292,386.657C287.185,387.244 286.958,387.723 286.613,388.096C286.265,388.469 285.534,388.735 284.414,388.895L284.414,396.409L297.685,396.409L303.76,388.815C305.039,389.828 306.345,390.814 307.677,391.773C308.796,392.626 309.995,393.546 311.274,394.531C312.553,395.518 313.725,396.463 314.792,397.369C314.684,397.796 314.405,398.116 313.953,398.328C313.499,398.542 312.98,398.648 312.393,398.648L284.414,398.648L284.414,408.96L292.488,408.96L297.604,403.444L307.997,411.279C307.73,411.598 307.357,411.932 306.877,412.278C306.398,412.625 305.731,412.878 304.879,413.037L304.879,430.544C304.879,430.758 304.56,431.051 303.92,431.424C303.28,431.797 302.494,432.171 301.562,432.543C300.628,432.917 299.603,433.236 298.484,433.502C297.365,433.77 296.298,433.902 295.287,433.902L293.288,433.902L293.288,428.865L291.449,428.865L291.449,447.811C291.449,448.399 291.609,448.784 291.929,448.971C292.249,449.158 292.941,449.251 294.007,449.251L305.679,449.251C306.264,449.198 306.704,449.091 306.997,448.931C307.29,448.771 307.57,448.478 307.837,448.051C308.317,447.306 308.916,446.08 309.635,444.374C310.355,442.669 311.167,440.537 312.074,437.979L312.873,437.979L313.113,448.531Z" style="fill:rgb(237,112,45);fill-rule:nonzero;"/>
                </g>
                <g transform="matrix(1,0,0,1,290.12,371.043)">
                    <path d="M0,10.951C0.532,11.485 1.092,12.044 1.679,12.63C2.158,13.163 2.69,13.749 3.278,14.389C3.863,15.028 4.449,15.696 5.036,16.387C5.196,14.043 5.302,11.724 5.356,9.432C5.408,7.142 5.436,4.823 5.436,2.478L5.436,-17.028C5.009,-16.76 4.529,-16.628 3.997,-16.628L-2.638,-16.628L-2.638,15.428L0,10.951ZM-14.789,21.983C-10.846,22.25 -7.742,22.93 -5.476,24.022C-3.211,25.115 -1.599,26.328 -0.64,27.659C0.32,28.992 0.732,30.351 0.599,31.736C0.466,33.123 -0.04,34.268 -0.92,35.174C-1.799,36.079 -2.945,36.612 -4.357,36.772C-5.77,36.932 -7.249,36.478 -8.794,35.414C-9.221,33.123 -10.073,30.79 -11.352,28.418C-12.631,26.048 -13.989,24.061 -15.429,22.463L-14.789,21.983ZM-20.945,17.826L-13.351,17.826L-13.351,6.075L-20.945,6.075L-20.945,17.826ZM-20.945,3.837L-13.351,3.837L-13.351,-5.676L-20.945,-5.676L-20.945,3.837ZM-20.945,-7.915L-13.351,-7.915L-13.351,-16.629L-20.945,-16.629L-20.945,-7.915ZM30.297,-11.512C31.416,-10.553 32.536,-9.593 33.655,-8.634C34.614,-7.835 35.626,-6.955 36.692,-5.996C37.758,-5.037 38.743,-4.158 39.651,-3.358C39.543,-2.931 39.291,-2.611 38.891,-2.399C38.491,-2.185 37.998,-2.079 37.412,-2.079L32.935,-2.079L32.935,40.609C32.935,40.769 32.736,41.009 32.336,41.329C31.936,41.649 31.349,41.968 30.577,42.288C29.804,42.608 28.871,42.888 27.779,43.127C26.686,43.367 25.447,43.487 24.062,43.487L22.064,43.487L22.064,-2.079L15.828,-2.079L15.828,2.637C15.828,6.155 15.695,9.752 15.429,13.429C15.161,17.107 14.456,20.718 13.31,24.262C12.163,27.806 10.418,31.216 8.074,34.494C5.728,37.772 2.478,40.716 -1.679,43.327L-2.478,42.448C-0.294,39.09 1.345,35.533 2.438,31.776C3.53,28.019 4.289,24.116 4.716,20.064L-37.652,20.064L-38.292,17.826L-31.497,17.826L-31.497,-16.628L-36.533,-16.628L-37.172,-18.866L-31.497,-18.866L-31.497,-31.417L-18.386,-30.219C-18.494,-29.739 -18.72,-29.325 -19.066,-28.979C-19.414,-28.632 -20.039,-28.379 -20.945,-28.22L-20.945,-18.866L-13.35,-18.866L-13.35,-31.338L0,-30.138C-0.108,-29.605 -0.32,-29.165 -0.64,-28.819C-0.959,-28.472 -1.627,-28.22 -2.638,-28.06L-2.638,-20.705L-0.16,-25.022C0.532,-24.329 1.199,-23.609 1.838,-22.863C3.064,-21.477 4.263,-20.066 5.436,-18.627L5.436,-26.141L15.988,-22.784C18.333,-24.329 20.637,-26.007 22.903,-27.82C25.167,-29.631 26.992,-31.204 28.379,-32.536L39.491,-23.103C38.372,-22.144 36.559,-22.091 34.054,-22.944C31.763,-22.357 28.991,-21.811 25.741,-21.305C22.49,-20.797 19.186,-20.385 15.828,-20.066L15.828,-4.317L25.102,-4.317L30.297,-11.512ZM-38.851,42.608C-36.613,40.103 -34.482,36.918 -32.456,33.055C-30.431,29.191 -28.807,25.075 -27.58,20.704L-14.789,27.099C-15.323,28.166 -16.468,28.538 -18.227,28.218C-20.892,31.896 -23.902,34.961 -27.26,37.412C-30.618,39.863 -34.242,41.835 -38.132,43.327L-38.851,42.608Z" style="fill:rgb(237,112,45);fill-rule:nonzero;"/>
                </g>
                <g transform="matrix(1,0,0,1,-68.1595,-47.1908)">
                    <path d="M459.325,421.031L453.409,421.031L453.409,429.984L459.325,429.984L459.325,421.031ZM453.409,418.793L459.325,418.793L459.325,410.079L453.409,410.079L453.409,418.793ZM443.496,421.031L437.901,421.031L437.901,429.984L443.496,429.984L443.496,421.031ZM437.901,418.793L443.496,418.793L443.496,410.079L437.901,410.079L437.901,418.793ZM403.926,387.616C408.349,388.47 411.852,389.682 414.438,391.254C417.022,392.826 418.875,394.491 419.994,396.25C421.113,398.009 421.619,399.701 421.513,401.326C421.405,402.952 420.885,404.284 419.954,405.323C419.021,406.362 417.782,406.962 416.237,407.122C414.69,407.282 413.065,406.722 411.36,405.443C411.04,403.952 410.601,402.419 410.041,400.846C409.482,399.275 408.842,397.729 408.123,396.21C407.403,394.691 406.63,393.239 405.804,391.853C404.977,390.468 404.138,389.189 403.286,388.016L403.926,387.616ZM437.901,445.173C437.901,445.653 437.234,446.253 435.902,446.972C434.569,447.691 432.997,448.211 431.186,448.531C433.796,449.171 436.821,449.638 440.259,449.93C443.696,450.224 447.759,450.344 452.45,450.29C456.713,450.29 460.75,450.25 464.56,450.17C468.37,450.09 472.435,449.917 476.752,449.651L476.752,450.53C474.566,451.117 472.875,452.302 471.675,454.087C470.476,455.872 469.743,457.937 469.477,460.283L448.853,460.283C444.588,460.283 440.924,459.989 437.86,459.403C434.795,458.816 432.117,457.924 429.826,456.725C427.535,455.526 425.522,454.007 423.791,452.169C422.059,450.33 420.446,448.159 418.954,445.653C418.367,444.748 417.848,444.322 417.396,444.374C416.942,444.428 416.503,444.854 416.077,445.653C415.703,446.4 415.21,447.32 414.598,448.411C413.984,449.504 413.345,450.689 412.679,451.968C412.012,453.248 411.32,454.553 410.601,455.886C409.881,457.217 409.228,458.496 408.642,459.723C408.749,460.149 408.708,460.508 408.522,460.802C408.335,461.095 408.083,461.348 407.763,461.562L400.408,450.21C401.9,449.464 403.526,448.545 405.284,447.452C407.043,446.36 408.722,445.333 410.321,444.374L410.321,417.354L400.888,417.354L400.408,415.116L409.042,415.116L414.078,408.401L424.79,416.955C424.47,417.382 423.991,417.742 423.351,418.034C422.712,418.327 421.805,418.581 420.634,418.793L420.634,443.015C422.498,444.722 424.71,446.133 427.269,447.252L427.269,403.444L438.38,407.841L447.653,407.841C446.906,407.469 446.267,407.016 445.735,406.482C444.828,404.991 443.429,403.432 441.538,401.806C439.645,400.18 437.074,398.781 433.823,397.609L434.143,396.65C438.46,396.65 442.07,396.863 444.975,397.289C447.879,397.717 450.212,398.276 451.97,398.968C452.61,398.116 453.236,397.249 453.849,396.37C454.461,395.491 455.034,394.651 455.567,393.852L426.149,393.852L425.43,391.614L455.967,391.614L461.723,386.017L471.396,395.131C471.022,395.504 470.622,395.757 470.196,395.89C469.769,396.023 469.103,396.117 468.198,396.17C466.599,397.077 464.68,397.956 462.442,398.808C460.204,399.661 457.966,400.46 455.728,401.206C456.313,401.846 456.659,402.499 456.766,403.165C456.873,403.832 456.806,404.457 456.567,405.043C456.327,405.63 455.927,406.163 455.368,406.642C454.808,407.122 454.181,407.522 453.489,407.841L458.525,407.841L463.242,402.565L473.155,410.16C472.887,410.427 472.501,410.733 471.995,411.079C471.488,411.426 470.809,411.679 469.957,411.838L469.957,438.778C469.957,440.377 469.837,441.776 469.597,442.975C469.357,444.174 468.85,445.213 468.078,446.093C467.305,446.972 466.186,447.679 464.721,448.211C463.254,448.745 461.296,449.118 458.845,449.33C458.791,447.839 458.725,446.546 458.645,445.453C458.565,444.362 458.392,443.495 458.126,442.855C457.858,442.216 457.513,441.644 457.086,441.137C456.659,440.631 455.887,440.244 454.768,439.978L454.768,439.018C455.248,439.072 455.699,439.098 456.127,439.098C456.499,439.152 456.873,439.178 457.246,439.178L458.205,439.178C458.685,439.178 458.991,439.072 459.125,438.858C459.257,438.646 459.325,438.326 459.325,437.899L459.325,432.223L453.409,432.223L453.409,444.614C453.355,444.881 452.636,445.307 451.25,445.893C449.864,446.48 447.893,446.773 445.335,446.773L443.496,446.773L443.496,432.223L437.901,432.223L437.901,445.173Z" style="fill:rgb(237,112,45);fill-rule:nonzero;"/>
                </g>
            </g>
        </g>
    </g>
</svg>
