<?xml version="1.0" encoding="UTF-8" standalone="no"?>
<!DOCTYPE svg PUBLIC "-//W3C//DTD SVG 1.1//EN" "http://www.w3.org/Graphics/SVG/1.1/DTD/svg11.dtd">
<svg width="100%" height="100%" viewBox="0 0 200 200" version="1.1" xmlns="http://www.w3.org/2000/svg" xmlns:xlink="http://www.w3.org/1999/xlink" xml:space="preserve" xmlns:serif="http://www.serif.com/" style="fill-rule:evenodd;clip-rule:evenodd;stroke-linejoin:round;stroke-miterlimit:2;">
    <g transform="matrix(0.32,0,0,0.32,-299.556,-460.955)">
        <g>
            <g transform="matrix(4.16667,0,0,4.16667,1244.99,2003)">
                <path d="M0,-120.008C-21.421,-120.008 -40.22,-108.775 -50.837,-91.883C-40.965,-105.531 -24.911,-114.415 -6.783,-114.415C23.222,-114.415 47.554,-90.083 47.554,-60.077C47.554,-30.072 23.22,-5.741 -6.784,-5.741C-25.343,-5.741 -41.729,-15.053 -51.531,-29.255C-41.051,-11.735 -21.895,0 -0.001,0C33.133,0 60.002,-26.872 60.002,-60.005C60.003,-93.138 33.133,-120.008 0,-120.008" style="fill:rgb(237,112,45);fill-rule:nonzero;"/>
            </g>
            <g transform="matrix(4.16667,0,0,4.16667,1031.71,1848.06)">
                <path d="M0,-47.037C0,-47.037 -10.765,-16.373 12.12,1.315C12.12,1.315 -0.879,-18.747 3.742,-40.151C5.838,-49.857 10.966,-58.196 19.261,-63.861C25.544,-68.153 34.917,-71.866 48.255,-71.241C48.255,-71.241 32.764,-70.502 20.862,-57.994C17.832,-54.809 15.086,-50.947 13.411,-46.709C11.117,-40.902 10.508,-34.438 10.998,-28.51C11.5,-22.433 13.607,-15.782 18.541,-9.098C18.541,-9.098 12.087,-27.272 20.15,-43.915C26.15,-56.3 38.528,-64.434 52.418,-65.064C62.082,-65.502 71.691,-62.91 78.757,-56.113C81.545,-53.433 84.296,-49.783 86.036,-44.94C86.036,-44.94 81.09,-52.358 71.797,-56.589C59.335,-62.262 45.745,-59.069 36.323,-48.976C29.15,-41.293 25.21,-29.691 26.937,-19.235C27.939,-13.153 31.082,-8.317 35.862,-4.473C43.768,1.888 65.193,-4.975 60.172,-22.549C66.908,-15.519 66.85,-5.409 65.693,1.158C63.605,13.016 53.719,20.351 45.693,22.258C34.869,24.829 22.482,21.278 13.374,15.216C2.962,8.283 -4.019,-3.374 -6.302,-15.585C-7.955,-24.423 -7.433,-35.623 0,-47.037" style="fill:rgb(237,112,45);fill-rule:nonzero;"/>
            </g>
            <g transform="matrix(4.16667,0,0,4.16667,1278.24,1668.31)">
                <path d="M0,61.763C22.931,50.884 24.344,27.32 16.906,15.064C10.712,4.859 -6.695,0 -13.347,10.148C-15.943,11.295 -18.037,12.62 -20.252,15.398C-10.544,12.552 -1.547,14.593 4.185,20.373C9.707,25.944 15.734,46.365 0,61.763" style="fill:rgb(237,112,45);fill-rule:nonzero;"/>
            </g>
            <g transform="matrix(-1.78753,-3.76375,-3.76375,1.78753,1231.73,1633.57)">
                <path d="M-10.971,-17.356C-12.836,-14.193 -11.278,-11.29 -8.888,-6.579C-6.439,-1.748 -7.154,3.301 -10.971,6.935C-11.083,0.307 -12.076,0.193 -14.126,-3.865C-16.663,-8.882 -16.877,-14.551 -10.971,-17.356" style="fill:rgb(237,112,45);fill-rule:nonzero;"/>
            </g>
        </g>
    </g>
</svg>
